#!OML:ASF F:\VICON\USERDATA\INSTALL\rory3\rory3.ASF
:FULLY-SPECIFIED
:DEGREES
1487
root -8.83701 17.793 4.29886 -358.999 27.1158 3.57986
lowerback 13.9461 2.77038 -2.03043
upperback 0.276594 3.37388 0.168496
thorax -7.66285 1.71881 0.637189
lowerneck -20.7532 1.05686 -9.38
upperneck 39.143 5.11107 2.66204
head 17.7114 1.19313 3.99448
rclavicle 6.79844e-014 -7.95139e-015
rhumerus -37.3603 -16.8374 -71.7075
rradius 30.4978
rwrist 8.30267
rhand -16.7215 9.86524
rfingers 7.12502
rthumb 9.50402 -19.9004
lclavicle 6.79844e-014 -7.95139e-015
lhumerus -28.0706 0.983765 81.4671
lradius 31.0754
lwrist -3.39888
lhand -19.8529 25.2306
lfingers 7.12502
lthumb 6.48183 55.1114
rfemur -17.1196 -9.31046 7.10992
rtibia 44.9603
rfoot -15.0798 -0.836163
rtoes -14.6624
lfemur -7.07405 -7.46282 -19.9665
ltibia 22.0351
lfoot -11.2447 -7.66542
ltoes -13.5628
1488
root -8.79758 17.8009 4.23648 -359.164 26.8878 3.51844
lowerback 14.0709 2.81067 -2.10154
upperback 0.266036 3.41331 0.175771
thorax -7.75043 1.74068 0.670414
lowerneck -20.6183 1.0695 -9.48468
upperneck 39.1144 5.13498 2.70867
head 17.6528 1.19794 4.03203
rclavicle -5.4964e-014 4.77083e-015
rhumerus -37.5492 -16.8307 -71.8923
rradius 30.5672
rwrist 8.18009
rhand -16.2965 9.76452
rfingers 7.12502
rthumb 9.91415 -19.982
lclavicle -5.4964e-014 4.77083e-015
lhumerus -28.1527 1.88075 80.763
lradius 30.8646
lwrist -3.29969
lhand -19.7646 26.25
lfingers 7.12502
lthumb 6.56704 56.1281
rfemur -17.3227 -9.88076 7.98026
rtibia 46.416
rfoot -15.6099 -0.397287
rtoes -15.5677
lfemur -6.9591 -7.45697 -20.1559
ltibia 21.8868
lfoot -11.084 -7.52307
ltoes -13.7975
1489
root -8.75833 17.8075 4.17676 -359.291 26.691 3.48591
lowerback 14.067 2.85096 -2.21658
upperback 0.29802 3.44777 0.166403
thorax -7.72134 1.76121 0.718976
lowerneck -20.3909 1.07677 -9.51167
upperneck 38.9975 5.10677 2.73155
head 17.5289 1.19599 4.02685
rclavicle -7.72775e-014 1.70955e-014
rhumerus -37.6998 -16.9088 -72.1061
rradius 30.6929
rwrist 8.00168
rhand -15.9413 9.57337
rfingers 7.12502
rthumb 10.2568 -20.1566
lclavicle -7.72775e-014 1.70955e-014
lhumerus -28.113 2.87538 80.0141
lradius 30.4933
lwrist -3.20297
lhand -20.0733 27.7461
lfingers 7.12502
lthumb 6.26901 57.6334
rfemur -17.4689 -10.429 8.81917
rtibia 47.7487
rfoot -16.1087 0.158163
rtoes -15.7877
lfemur -6.94043 -7.33913 -20.3582
ltibia 21.8317
lfoot -10.9615 -7.48033
ltoes -13.5571
1490
root -8.71921 17.809 4.11758 -359.334 26.4878 3.45546
lowerback 13.8762 2.85855 -2.38704
upperback 0.390888 3.43785 0.18373
thorax -7.52536 1.76209 0.846999
lowerneck -20.3024 1.12487 -9.48313
upperneck 38.8841 5.14632 2.72451
head 17.4395 1.22169 4.01594
rclavicle -1.15295e-014 5.96354e-015
rhumerus -37.581 -16.9014 -72.3939
rradius 30.6654
rwrist 7.9532
rhand -15.968 9.63625
rfingers 7.12502
rthumb 10.231 -20.0949
lclavicle -1.15295e-014 5.96354e-015
lhumerus -28.0975 3.64605 79.3645
lradius 30.3393
lwrist -2.75299
lhand -20.4755 28.4759
lfingers 7.12502
lthumb 5.88074 58.3743
rfemur -17.6578 -10.9483 9.6974
rtibia 48.9718
rfoot -16.5465 0.722196
rtoes -16.4378
lfemur -7.05243 -7.15114 -20.5383
ltibia 21.8407
lfoot -10.8599 -7.52972
ltoes -13.0988
1491
root -8.68478 17.8078 4.05913 -359.32 26.3574 3.42576
lowerback 13.6872 2.86661 -2.55895
upperback 0.442408 3.4286 0.199849
thorax -7.37504 1.76328 0.972935
lowerneck -20.2932 1.16612 -9.54346
upperneck 38.8389 5.17392 2.84866
head 17.3994 1.24441 4.08469
rclavicle 9.10434e-014 1.23246e-014
rhumerus -37.5271 -16.7809 -72.7253
rradius 30.7184
rwrist 7.7655
rhand -16.2786 9.66633
rfingers 7.12502
rthumb 9.93138 -20.0794
lclavicle 9.10434e-014 1.23246e-014
lhumerus -28.1819 4.20331 78.7894
lradius 30.3928
lwrist -2.31634
lhand -19.9742 27.5347
lfingers 7.12502
lthumb 6.36469 57.419
rfemur -17.8454 -11.5257 10.6012
rtibia 50.0754
rfoot -16.8874 1.44796
rtoes -17.0563
lfemur -7.26622 -7.01471 -20.683
ltibia 21.9163
lfoot -10.718 -7.60063
ltoes -12.6442
1492
root -8.65109 17.8062 4.00146 -359.361 26.2862 3.40135
lowerback 13.6507 2.89111 -2.6281
upperback 0.427978 3.45045 0.190013
thorax -7.37455 1.77626 0.998142
lowerneck -20.1425 1.12525 -9.75945
upperneck 38.8015 5.09813 3.03719
head 17.331 1.21459 4.18596
rclavicle -9.98396e-014 1.66979e-014
rhumerus -37.7057 -16.6387 -72.9619
rradius 30.9323
rwrist 7.43797
rhand -16.3043 9.68063
rfingers 7.12502
rthumb 9.90657 -20.0663
lclavicle -9.98396e-014 1.66979e-014
lhumerus -28.2741 4.85599 78.218
lradius 30.2956
lwrist -2.19714
lhand -19.2064 25.8109
lfingers 7.12502
lthumb 7.10593 55.6716
rfemur -17.8754 -12.1319 11.4683
rtibia 51.0533
rfoot -17.2334 2.47806
rtoes -17.2908
lfemur -7.44542 -6.90538 -20.8341
ltibia 22.0802
lfoot -10.6994 -7.65515
ltoes -12.6382
1493
root -8.61532 17.8055 3.94361 -359.393 26.2397 3.4051
lowerback 13.6252 2.89809 -2.6675
upperback 0.408291 3.45133 0.153197
thorax -7.38147 1.77759 0.98168
lowerneck -20.0438 1.08555 -9.79335
upperneck 38.8176 5.04948 3.01671
head 17.3207 1.18737 4.17099
rclavicle -3.75703e-014 -6.75868e-015
rhumerus -37.8703 -16.5993 -73.1665
rradius 31.0328
rwrist 7.45312
rhand -16.3176 9.84254
rfingers 7.12502
rthumb 9.89378 -19.905
lclavicle -3.75703e-014 -6.75868e-015
lhumerus -28.2963 5.51007 77.6559
lradius 30.0984
lwrist -2.13917
lhand -18.9322 25.0855
lfingers 7.12502
lthumb 7.37058 54.9371
rfemur -17.8157 -12.7932 12.298
rtibia 51.8843
rfoot -17.6893 3.5854
rtoes -18.0401
lfemur -7.62528 -6.86397 -21.0189
ltibia 22.2981
lfoot -10.7108 -7.74772
ltoes -11.7302
1494
root -8.57995 17.8042 3.88534 -359.375 26.166 3.43358
lowerback 13.5415 2.88931 -2.75957
upperback 0.401567 3.42489 0.112776
thorax -7.34354 1.76717 0.999644
lowerneck -20.0189 1.12246 -9.66556
upperneck 38.8538 5.09531 2.91861
head 17.3385 1.20845 4.114
rclavicle 5.09386e-014 -1.98785e-015
rhumerus -37.9219 -16.4755 -73.4475
rradius 31.0735
rwrist 7.53218
rhand -16.3472 9.86652
rfingers 7.12502
rthumb 9.86521 -19.8824
lclavicle 5.09386e-014 -1.98785e-015
lhumerus -28.3386 6.12421 77.0727
lradius 29.9501
lwrist -2.07046
lhand -18.8912 24.9232
lfingers 7.12502
lthumb 7.41016 54.7734
rfemur -17.7363 -13.3879 13.1078
rtibia 52.5531
rfoot -18.0522 4.69129
rtoes -18.2466
lfemur -7.86614 -6.75377 -21.2215
ltibia 22.5467
lfoot -10.7516 -7.90782
ltoes -10.9574
1495
root -8.54433 17.8018 3.83028 -359.394 26.0248 3.33269
lowerback 13.3326 2.88842 -2.80634
upperback 0.449469 3.42842 0.173987
thorax -7.18182 1.77062 1.1013
lowerneck -20.0195 1.15539 -9.73805
upperneck 38.8609 5.16844 2.93479
head 17.3329 1.22908 4.14762
rclavicle 2.37548e-014 -1.51076e-014
rhumerus -37.8464 -16.239 -73.6915
rradius 31.1831
rwrist 7.25985
rhand -16.1645 9.69316
rfingers 7.12502
rthumb 10.0414 -20.0473
lclavicle 2.37548e-014 -1.51076e-014
lhumerus -28.3539 6.95798 76.5355
lradius 29.7761
lwrist -2.13795
lhand -18.7558 24.7563
lfingers 7.12502
lthumb 7.54082 54.6019
rfemur -17.605 -13.8508 14.0565
rtibia 53.0418
rfoot -18.3588 5.74183
rtoes -18.5045
lfemur -8.14805 -6.52777 -21.2867
ltibia 22.8161
lfoot -10.7311 -8.11849
ltoes -10.4575
1496
root -8.51083 17.7959 3.77928 -359.432 25.9003 3.22498
lowerback 13.1106 2.93242 -2.84817
upperback 0.477596 3.49111 0.215611
thorax -7.03531 1.80247 1.16778
lowerneck -19.91 1.12289 -9.85544
upperneck 38.8273 5.10024 3.05027
head 17.2833 1.20495 4.20177
rclavicle -1.08039e-013 1.03368e-014
rhumerus -37.9524 -16.1952 -73.8446
rradius 31.3961
rwrist 7.05555
rhand -15.9084 9.77353
rfingers 7.12502
rthumb 10.2886 -19.9548
lclavicle -1.08039e-013 1.03368e-014
lhumerus -28.3394 7.61132 76.0348
lradius 29.5399
lwrist -2.33955
lhand -18.5886 25.0069
lfingers 7.12502
lthumb 7.7022 54.8467
rfemur -17.3846 -14.3291 15.0101
rtibia 53.3644
rfoot -18.694 6.83229
rtoes -19.4437
lfemur -8.42358 -6.29294 -21.3393
ltibia 23.104
lfoot -10.7492 -8.25625
ltoes -10.483
1497
root -8.47858 17.7925 3.72859 -359.425 25.8998 3.19541
lowerback 13.0129 2.934 -2.85976
upperback 0.434569 3.49178 0.182899
thorax -7.02516 1.80305 1.14295
lowerneck -19.8737 1.06245 -9.88274
upperneck 38.8658 5.00153 3.0884
head 17.3026 1.16463 4.2067
rclavicle -1.04859e-014 -1.03368e-014
rhumerus -38.1885 -16.065 -74.0604
rradius 31.6344
rwrist 7.07515
rhand -15.9348 10.0546
rfingers 7.12502
rthumb 10.2631 -19.675
lclavicle -1.04859e-014 -1.03368e-014
lhumerus -28.3937 7.91422 75.5803
lradius 29.412
lwrist -2.24051
lhand -18.6906 25.3631
lfingers 7.12502
lthumb 7.60378 55.2065
rfemur -17.1008 -14.8312 15.8689
rtibia 53.5348
rfoot -18.9956 7.80739
rtoes -20.4517
lfemur -8.71837 -6.23809 -21.4665
ltibia 23.4033
lfoot -10.8588 -8.27641
ltoes -10.8184
1498
root -8.44673 17.7897 3.67618 -359.401 25.9281 3.2188
lowerback 12.9569 2.90642 -2.87405
upperback 0.407601 3.45104 0.133468
thorax -7.01834 1.78308 1.10854
lowerneck -19.9292 1.03372 -9.88387
upperneck 38.9041 4.97325 3.07608
head 17.3418 1.14742 4.20025
rclavicle -1.12562e-014 -1.59028e-014
rhumerus -38.2635 -15.8605 -74.3217
rradius 31.7388
rwrist 7.07904
rhand -16.053 10.2571
rfingers 7.12502
rthumb 10.149 -19.4781
lclavicle -1.12562e-014 -1.59028e-014
lhumerus -28.4004 8.33145 75.131
lradius 29.3182
lwrist -2.13742
lhand -19.4223 26.3276
lfingers 7.12502
lthumb 6.89747 56.1953
rfemur -16.7542 -15.3347 16.635
rtibia 53.568
rfoot -19.2423 8.61753
rtoes -21.3557
lfemur -9.00515 -6.21206 -21.6402
ltibia 23.7128
lfoot -10.9154 -8.43363
ltoes -10.152
1499
root -8.41537 17.7841 3.61795 -359.274 25.9079 3.34218
lowerback 12.8663 2.89616 -2.95823
upperback 0.361372 3.42306 0.0725821
thorax -7.01683 1.77167 1.09975
lowerneck -19.8892 1.03736 -9.92492
upperneck 38.9218 4.98426 3.09571
head 17.3383 1.14846 4.21794
rclavicle -2.88238e-014 7.55382e-015
rhumerus -38.3261 -15.6901 -74.5342
rradius 31.8581
rwrist 6.9086
rhand -16.0021 10.0758
rfingers 7.12502
rthumb 10.1981 -19.657
lclavicle -2.88238e-014 7.55382e-015
lhumerus -28.4213 8.69183 74.7457
lradius 29.222
lwrist -2.07212
lhand -19.7905 27.3611
lfingers 7.12502
lthumb 6.54206 57.2401
rfemur -16.447 -15.683 17.2868
rtibia 53.478
rfoot -19.328 9.4126
rtoes -21.5604
lfemur -9.36779 -6.06231 -21.8966
ltibia 24.0126
lfoot -10.9314 -8.71426
ltoes -9.09471
1500
root -8.38285 17.7767 3.56327 -359.149 25.8042 3.49582
lowerback 12.6625 2.92125 -3.04345
upperback 0.361122 3.44371 -0.0338556
thorax -6.90201 1.78223 1.04098
lowerneck -19.8185 1.01016 -9.94927
upperneck 38.9057 4.91008 3.16957
head 17.3136 1.12744 4.23852
rclavicle -2.74571e-014 -4.37326e-015
rhumerus -38.4142 -15.6667 -74.7587
rradius 32.0691
rwrist 6.71436
rhand -15.8854 9.91396
rfingers 7.12502
rthumb 10.3107 -19.8133
lclavicle -2.74571e-014 -4.37326e-015
lhumerus -28.4626 8.64191 74.468
lradius 29.3146
lwrist -1.63446
lhand -19.6502 27.3209
lfingers 7.12502
lthumb 6.6775 57.1956
rfemur -16.0446 -15.8729 17.8724
rtibia 53.2397
rfoot -19.3049 10.1038
rtoes -21.7432
lfemur -9.7022 -5.8038 -22.1748
ltibia 24.3114
lfoot -10.9909 -9.05306
ltoes -8.10823
1501
root -8.35098 17.768 3.51475 -359.066 25.6949 3.61834
lowerback 12.4082 2.95893 -3.13412
upperback 0.392037 3.48449 -0.125708
thorax -6.72777 1.8024 1.00069
lowerneck -19.8567 0.930073 -9.99688
upperneck 38.9265 4.77284 3.26179
head 17.3425 1.07561 4.26597
rclavicle -2.08724e-015 -1.74931e-014
rhumerus -38.482 -15.7252 -74.9358
rradius 32.2853
rwrist 6.70008
rhand -15.748 9.85144
rfingers 7.12502
rthumb 10.4432 -19.8692
lclavicle -2.08724e-015 -1.74931e-014
lhumerus -28.4242 8.76266 74.1791
lradius 29.3592
lwrist -1.4515
lhand -19.7332 27.1376
lfingers 7.12502
lthumb 6.5974 57.0148
rfemur -15.553 -16.0282 18.4503
rtibia 52.84
rfoot -19.0833 10.6575
rtoes -21.8427
lfemur -9.99075 -5.56178 -22.4151
ltibia 24.5828
lfoot -11.0455 -9.38964
ltoes -6.97801
